<svg width="100%" height="120" viewBox="0 0 600 120" xmlns="http://www.w3.org/2000/svg">
  <defs>
    <linearGradient id="eqGrad" x1="0%" y1="0%" x2="100%" y2="0%">
      <stop offset="0%"  stop-color="#FF6B6B"/>
      <stop offset="50%" stop-color="#9B59B6"/>
      <stop offset="100%" stop-color="#4ECDC4"/>
    </linearGradient>
    <filter id="softGlow">
      <feGaussianBlur stdDeviation="3.5" result="blur"/>
      <feMerge>
        <feMergeNode in="blur"/>
        <feMergeNode in="SourceGraphic"/>
      </feMerge>
    </filter>
    <style>
      @keyframes bounce {
        0%   { transform: scaleY(0.2); }
        25%  { transform: scaleY(0.9); }
        50%  { transform: scaleY(0.35); }
        75%  { transform: scaleY(0.75); }
        100% { transform: scaleY(0.2); }
      }
      .bar {
        transform-origin: 50% 100%;
        animation: bounce 1.2s infinite ease-in-out;
      }
      .baseline { opacity: .18 }
    </style>
  </defs>

  <rect class="baseline" x="0" y="100" width="600" height="2" fill="currentColor"/>
  <g filter="url(#softGlow)" fill="url(#eqGrad)">
    <rect class="bar" x="60"  y="20"  width="10" height="80" style="animation-delay:-0.00s"/>
    <rect class="bar" x="80"  y="34"  width="10" height="66" style="animation-delay:-0.10s"/>
    <rect class="bar" x="100" y="50"  width="10" height="50" style="animation-delay:-0.20s"/>
    <rect class="bar" x="120" y="34"  width="10" height="66" style="animation-delay:-0.30s"/>
    <rect class="bar" x="140" y="24"  width="10" height="76" style="animation-delay:-0.40s"/>
    <rect class="bar" x="160" y="12"  width="10" height="88" style="animation-delay:-0.50s"/>
    <rect class="bar" x="180" y="22"  width="10" height="78" style="animation-delay:-0.60s"/>
    <rect class="bar" x="200" y="36"  width="10" height="64" style="animation-delay:-0.70s"/>
    <rect class="bar" x="220" y="52"  width="10" height="48" style="animation-delay:-0.80s"/>
    <rect class="bar" x="240" y="36"  width="10" height="64" style="animation-delay:-0.90s"/>
    <rect class="bar" x="260" y="24"  width="10" height="76" style="animation-delay:-1.00s"/>
    <rect class="bar" x="280" y="14"  width="10" height="86" style="animation-delay:-1.10s"/>
    <rect class="bar" x="310" y="18"  width="10" height="82" style="animation-delay:-1.15s"/>
    <rect class="bar" x="330" y="30"  width="10" height="70" style="animation-delay:-1.05s"/>
    <rect class="bar" x="350" y="48"  width="10" height="52" style="animation-delay:-0.95s"/>
    <rect class="bar" x="370" y="32"  width="10" height="68" style="animation-delay:-0.85s"/>
    <rect class="bar" x="390" y="22"  width="10" height="78" style="animation-delay:-0.75s"/>
    <rect class="bar" x="410" y="12"  width="10" height="88" style="animation-delay:-0.65s"/>
    <rect class="bar" x="430" y="24"  width="10" height="76" style="animation-delay:-0.55s"/>
    <rect class="bar" x="450" y="38"  width="10" height="62" style="animation-delay:-0.45s"/>
    <rect class="bar" x="470" y="52"  width="10" height="48" style="animation-delay:-0.35s"/>
    <rect class="bar" x="490" y="36"  width="10" height="64" style="animation-delay:-0.25s"/>
    <rect class="bar" x="510" y="22"  width="10" height="78" style="animation-delay:-0.15s"/>
    <rect class="bar" x="530" y="16"  width="10" height="84" style="animation-delay:-0.05s"/>
  </g>
</svg>
